{
  "accessors": [
    {
      "bufferView": 2,
      "componentType": 5126,
      "count": 654,
      "max": [
        1.5776596069335938,
        3.573324680328369,
        2.246837615966797
      ],
      "min": [
        -1.3714756965637207,
        -0.5563993453979492,
        -0.2770369052886963
      ],
      "type": "VEC3"
    },
    {
      "bufferView": 2,
      "byteOffset": 7848,
      "componentType": 5126,
      "count": 654,
      "max": [
        0.9997192621231079,
        0.993837296962738,
        0.9812892079353333
      ],
      "min": [
        -0.9799006581306458,
        -0.9976339340209961,
        -0.9975408315658569
      ],
      "type": "VEC3"
    },
    {
      "bufferView": 1,
      "componentType": 5126,
      "count": 654,
      "max": [
        0.75,
        0.875
      ],
      "min": [
        0.25,
        0.375
      ],
      "type": "VEC2"
    },
    {
      "bufferView": 0,
      "componentType": 5125,
      "count": 1014,
      "type": "SCALAR"
    },
    {
      "bufferView": 2,
      "byteOffset": 15696,
      "componentType": 5126,
      "count": 846,
      "max": [
        0.8710315227508545,
        0.7021268606185913,
        0.22042493522167206
      ],
      "min": [
        0.41899141669273376,
        0.22390702366828918,
        -0.22042493522167206
      ],
      "type": "VEC3"
    },
    {
      "bufferView": 2,
      "byteOffset": 25848,
      "componentType": 5126,
      "count": 846,
      "max": [
        0.9966286420822144,
        0.9715740084648132,
        1.0
      ],
      "min": [
        -0.9998052716255188,
        -0.9997170567512512,
        -1.0
      ],
      "type": "VEC3"
    },
    {
      "bufferView": 1,
      "byteOffset": 5232,
      "componentType": 5126,
      "count": 846,
      "max": [
        0.625,
        0.7500000596046448
      ],
      "min": [
        0.375,
        0.6249999403953552
      ],
      "type": "VEC2"
    },
    {
      "bufferView": 0,
      "byteOffset": 4056,
      "componentType": 5125,
      "count": 1314,
      "type": "SCALAR"
    },
    {
      "bufferView": 2,
      "byteOffset": 36000,
      "componentType": 5126,
      "count": 2838,
      "max": [
        1.135886549949646,
        1.1486601829528809,
        0.834955096244812
      ],
      "min": [
        -1.135886549949646,
        -0.37283629179000854,
        -1.458963394165039
      ],
      "type": "VEC3"
    },
    {
      "bufferView": 2,
      "byteOffset": 70056,
      "componentType": 5126,
      "count": 2838,
      "max": [
        0.9991153478622437,
        0.9890000224113464,
        0.9916882514953613
      ],
      "min": [
        -0.9991153478622437,
        -0.9994336366653442,
        -0.9996470808982849
      ],
      "type": "VEC3"
    },
    {
      "bufferView": 1,
      "byteOffset": 12000,
      "componentType": 5126,
      "count": 2838,
      "max": [
        0.875,
        1.0
      ],
      "min": [
        0.125,
        0.0
      ],
      "type": "VEC2"
    },
    {
      "bufferView": 0,
      "byteOffset": 9312,
      "componentType": 5125,
      "count": 4170,
      "type": "SCALAR"
    },
    {
      "bufferView": 2,
      "byteOffset": 104112,
      "componentType": 5126,
      "count": 1452,
      "max": [
        9.411294937133789,
        0.5366606712341309,
        8.796762466430664
      ],
      "min": [
        5.948071479797363,
        -4.481146335601807,
        4.894848823547363
      ],
      "type": "VEC3"
    },
    {
      "bufferView": 2,
      "byteOffset": 121536,
      "componentType": 5126,
      "count": 1452,
      "max": [
        0.9878960251808167,
        0.9929203987121582,
        0.9999649524688721
      ],
      "min": [
        -0.9781165719032288,
        -0.9751321077346802,
        -0.9999649524688721
      ],
      "type": "VEC3"
    },
    {
      "bufferView": 1,
      "byteOffset": 34704,
      "componentType": 5126,
      "count": 1452,
      "max": [
        0.875,
        0.625
      ],
      "min": [
        0.125,
        0.125
      ],
      "type": "VEC2"
    },
    {
      "bufferView": 0,
      "byteOffset": 25992,
      "componentType": 5125,
      "count": 2184,
      "type": "SCALAR"
    },
    {
      "bufferView": 2,
      "byteOffset": 138960,
      "componentType": 5126,
      "count": 1328,
      "max": [
        -8.443647384643555,
        10.152584075927734,
        -9.395575523376465
      ],
      "min": [
        -11.053827285766602,
        8.410510063171387,
        -10.704048156738281
      ],
      "type": "VEC3"
    },
    {
      "bufferView": 2,
      "byteOffset": 154896,
      "componentType": 5126,
      "count": 1328,
      "max": [
        0.9990781545639038,
        0.9877992868423462,
        0.9961468577384949
      ],
      "min": [
        -0.9990779161453247,
        -0.9964367747306824,
        -0.9997941255569458
      ],
      "type": "VEC3"
    },
    {
      "bufferView": 1,
      "byteOffset": 46320,
      "componentType": 5126,
      "count": 1328,
      "max": [
        0.75,
        0.8750000596046448
      ],
      "min": [
        0.25,
        0.375
      ],
      "type": "VEC2"
    },
    {
      "bufferView": 0,
      "byteOffset": 34728,
      "componentType": 5125,
      "count": 2016,
      "type": "SCALAR"
    },
    {
      "bufferView": 2,
      "byteOffset": 170832,
      "componentType": 5126,
      "count": 1377,
      "max": [
        0.5061721801757813,
        0.9219717383384705,
        -0.48194512724876404
      ],
      "min": [
        -0.5061721801757813,
        0.2623054087162018,
        -0.9992574453353882
      ],
      "type": "VEC3"
    },
    {
      "bufferView": 2,
      "byteOffset": 187356,
      "componentType": 5126,
      "count": 1377,
      "max": [
        1.0,
        0.9958956241607666,
        0.9994729161262512
      ],
      "min": [
        -0.8562793731689453,
        -0.9796035289764404,
        -0.9999989867210388
      ],
      "type": "VEC3"
    },
    {
      "bufferView": 3,
      "componentType": 5126,
      "count": 1377,
      "max": [
        1.0,
        1.0,
        1.0,
        1.0
      ],
      "min": [
        0.9882352948188782,
        0.9882352948188782,
        0.9882352948188782,
        0.9882352948188782
      ],
      "type": "VEC4"
    },
    {
      "bufferView": 1,
      "byteOffset": 56944,
      "componentType": 5126,
      "count": 1377,
      "max": [
        0.75,
        0.5703125
      ],
      "min": [
        0.0,
        0.0
      ],
      "type": "VEC2"
    },
    {
      "bufferView": 0,
      "byteOffset": 42792,
      "componentType": 5125,
      "count": 2112,
      "type": "SCALAR"
    },
    {
      "bufferView": 2,
      "byteOffset": 203880,
      "componentType": 5126,
      "count": 1950,
      "max": [
        6.055314064025879,
        0.009999999776482582,
        0.011102300137281418
      ],
      "min": [
        0.06106264889240265,
        -0.009999999776482582,
        -0.46312451362609863
      ],
      "type": "VEC3"
    },
    {
      "bufferView": 2,
      "byteOffset": 227280,
      "componentType": 5126,
      "count": 1950,
      "max": [
        1.0,
        1.0,
        1.0
      ],
      "min": [
        -1.0,
        -1.0,
        -1.0
      ],
      "type": "VEC3"
    },
    {
      "bufferView": 1,
      "byteOffset": 67960,
      "componentType": 5126,
      "count": 1950,
      "max": [
        1.0,
        1.0
      ],
      "min": [
        0.0,
        0.0
      ],
      "type": "VEC2"
    },
    {
      "bufferView": 0,
      "byteOffset": 51240,
      "componentType": 5125,
      "count": 5508,
      "type": "SCALAR"
    }
  ],
  "asset": {
    "extras": {
      "author": "Arkoprabho Bhattacharjee (https://sketchfab.com/arko97x)",
      "license": "CC-BY-4.0 (http://creativecommons.org/licenses/by/4.0/)",
      "source": "https://sketchfab.com/3d-models/animal-composition-b5366830e845475983ccbca20a76a122",
      "title": "Animal Composition"
    },
    "generator": "Sketchfab-12.16.1",
    "version": "2.0"
  },
  "bufferViews": [
    {
      "buffer": 0,
      "byteLength": 73272,
      "name": "floatBufferViews",
      "target": 34963
    },
    {
      "buffer": 0,
      "byteLength": 83560,
      "byteOffset": 73272,
      "byteStride": 8,
      "name": "floatBufferViews",
      "target": 34962
    },
    {
      "buffer": 0,
      "byteLength": 250680,
      "byteOffset": 156832,
      "byteStride": 12,
      "name": "floatBufferViews",
      "target": 34962
    },
    {
      "buffer": 0,
      "byteLength": 22032,
      "byteOffset": 407512,
      "byteStride": 16,
      "name": "floatBufferViews",
      "target": 34962
    }
  ],
  "buffers": [
    {
      "byteLength": 429544,
      "uri": "scene.bin"
    }
  ],
  "materials": [
    {
      "doubleSided": true,
      "name": "material_0",
      "pbrMetallicRoughness": {
        "metallicFactor": 0.0,
        "roughnessFactor": 0.6
      }
    },
    {
      "doubleSided": true,
      "name": "Material.012",
      "pbrMetallicRoughness": {
        "baseColorFactor": [
          0.1119324278369056,
          0.5583403896342672,
          0.6938717612919899,
          1.0
        ],
        "metallicFactor": 0.0,
        "roughnessFactor": 0.446
      }
    },
    {
      "doubleSided": true,
      "name": "Material.011",
      "pbrMetallicRoughness": {
        "baseColorFactor": [
          0.1119324278369056,
          0.5583403896342672,
          0.6938717612919899,
          1.0
        ],
        "metallicFactor": 0.0,
        "roughnessFactor": 0.446
      }
    },
    {
      "doubleSided": true,
      "name": "Material.010",
      "pbrMetallicRoughness": {
        "baseColorFactor": [
          0.1119324278369056,
          0.5583403896342672,
          0.6938717612919899,
          1.0
        ],
        "metallicFactor": 0.0,
        "roughnessFactor": 0.446
      }
    },
    {
      "alphaMode": "BLEND",
      "doubleSided": true,
      "name": "Material.009",
      "pbrMetallicRoughness": {
        "baseColorFactor": [
          0.11178330439105834,
          0.5589278737213134,
          0.6912592433859023,
          0.476
        ],
        "metallicFactor": 0.0,
        "roughnessFactor": 0.446
      }
    },
    {
      "doubleSided": true,
      "name": "Material.008",
      "pbrMetallicRoughness": {
        "baseColorFactor": [
          0.1119324278369056,
          0.5583403896342672,
          0.6938717612919899,
          1.0
        ],
        "metallicFactor": 0.0,
        "roughnessFactor": 0.446
      }
    },
    {
      "doubleSided": true,
      "name": "Material.007",
      "pbrMetallicRoughness": {
        "baseColorFactor": [
          0.1119324278369056,
          0.5583403896342672,
          0.6938717612919899,
          1.0
        ],
        "metallicFactor": 0.0,
        "roughnessFactor": 0.446
      }
    }
  ],
  "meshes": [
    {
      "name": "Object_0",
      "primitives": [
        {
          "attributes": {
            "NORMAL": 1,
            "POSITION": 0,
            "TEXCOORD_0": 2
          },
          "indices": 3,
          "material": 1,
          "mode": 4
        }
      ]
    },
    {
      "name": "Object_1",
      "primitives": [
        {
          "attributes": {
            "NORMAL": 5,
            "POSITION": 4,
            "TEXCOORD_0": 6
          },
          "indices": 7,
          "material": 2,
          "mode": 4
        }
      ]
    },
    {
      "name": "Object_2",
      "primitives": [
        {
          "attributes": {
            "NORMAL": 9,
            "POSITION": 8,
            "TEXCOORD_0": 10
          },
          "indices": 11,
          "material": 3,
          "mode": 4
        }
      ]
    },
    {
      "name": "Object_3",
      "primitives": [
        {
          "attributes": {
            "NORMAL": 13,
            "POSITION": 12,
            "TEXCOORD_0": 14
          },
          "indices": 15,
          "material": 4,
          "mode": 4
        }
      ]
    },
    {
      "name": "Object_4",
      "primitives": [
        {
          "attributes": {
            "NORMAL": 17,
            "POSITION": 16,
            "TEXCOORD_0": 18
          },
          "indices": 19,
          "material": 5,
          "mode": 4
        }
      ]
    },
    {
      "name": "Object_5",
      "primitives": [
        {
          "attributes": {
            "COLOR_0": 22,
            "NORMAL": 21,
            "POSITION": 20,
            "TEXCOORD_0": 23
          },
          "indices": 24,
          "material": 6,
          "mode": 4
        }
      ]
    },
    {
      "name": "Object_6",
      "primitives": [
        {
          "attributes": {
            "NORMAL": 26,
            "POSITION": 25,
            "TEXCOORD_0": 27
          },
          "indices": 28,
          "material": 0,
          "mode": 4
        }
      ]
    }
  ],
  "nodes": [
    {
      "children": [
        1
      ],
      "matrix": [
        1.0,
        0.0,
        0.0,
        0.0,
        0.0,
        2.220446049250313e-16,
        -1.0,
        0.0,
        0.0,
        1.0,
        2.220446049250313e-16,
        0.0,
        0.0,
        0.0,
        0.0,
        1.0
      ],
      "name": "Sketchfab_model"
    },
    {
      "children": [
        2
      ],
      "name": "root"
    },
    {
      "children": [
        3,
        5,
        7,
        9,
        11,
        13,
        15
      ],
      "matrix": [
        1.0,
        0.0,
        0.0,
        0.0,
        0.0,
        2.220446049250313e-16,
        1.0,
        0.0,
        0.0,
        -1.0,
        2.220446049250313e-16,
        0.0,
        0.0,
        0.0,
        0.0,
        1.0
      ],
      "name": "GLTF_SceneRootNode"
    },
    {
      "children": [
        4
      ],
      "matrix": [
        0.09474056329773585,
        0.02745436952267459,
        1.449330293710254,
        0.0,
        -0.06966420535404548,
        1.4508304446605378,
        -0.022928941201148207,
        0.0,
        -1.4479153777636757,
        -0.06800805427542218,
        0.09593633511477359,
        0.0,
        -8.207706451416016,
        20.349912643432617,
        13.33562183380127,
        1.0
      ],
      "name": "Cube.012_0"
    },
    {
      "mesh": 0,
      "name": "Object_4"
    },
    {
      "children": [
        6
      ],
      "matrix": [
        -6.111486446103558,
        0.0,
        8.55007276337062,
        0.0,
        -0.0,
        10.509710311889648,
        0.0,
        0.0,
        -8.55007276337062,
        0.0,
        -6.111486446103558,
        0.0,
        -10.421939849853516,
        31.34751319885254,
        9.153389930725098,
        1.0
      ],
      "name": "Cube.010_1"
    },
    {
      "mesh": 1,
      "name": "Object_6"
    },
    {
      "children": [
        8
      ],
      "matrix": [
        2.4016158547028055,
        -0.12370245414938728,
        -2.132960683094829,
        0.0,
        -0.4509476861468641,
        3.1073993206072505,
        -0.687962064328342,
        0.0,
        2.088413186245865,
        0.8132304236407957,
        2.3042935854465756,
        0.0,
        1.5567550659179688,
        46.057281494140625,
        14.179051399230957,
        1.0
      ],
      "name": "Cube.005_2"
    },
    {
      "mesh": 2,
      "name": "Object_8"
    },
    {
      "children": [
        10
      ],
      "matrix": [
        0.09525725211381761,
        0.0,
        5.6516950623428395,
        0.0,
        0.0,
        5.6524977684021,
        0.0,
        0.0,
        -5.6516950623428395,
        0.0,
        0.09525725211381761,
        0.0,
        38.03417205810547,
        37.48558044433594,
        -29.48946762084961,
        1.0
      ],
      "name": "Cube.004_3"
    },
    {
      "mesh": 3,
      "name": "Object_10"
    },
    {
      "children": [
        12
      ],
      "matrix": [
        3.779384829426577,
        0.0,
        -3.8270152977405854,
        0.0,
        0.0,
        5.378643035888672,
        0.0,
        0.0,
        3.8270152977405854,
        0.0,
        3.779384829426577,
        0.0,
        93.02530670166016,
        -14.797430038452148,
        14.536883354187012,
        1.0
      ],
      "name": "Cube.003_4"
    },
    {
      "mesh": 4,
      "name": "Object_12"
    },
    {
      "children": [
        14
      ],
      "matrix": [
        -2.9182891597890768,
        1.107634831362087,
        4.612435966865875,
        0.0,
        2.4828002316028513e-07,
        6.402290953622972,
        -1.5374521808294859,
        0.0,
        -9.525575455744233,
        -1.3683779268000535,
        -5.698229900179943,
        0.0,
        3.2049942016601563,
        17.075462341308594,
        10.52216911315918,
        1.0
      ],
      "name": "Cube.002_5"
    },
    {
      "mesh": 5,
      "name": "Object_14"
    },
    {
      "children": [
        16
      ],
      "matrix": [
        6.2730482069479265,
        -1.1196622965964448e-09,
        -0.05654311294462007,
        0.0,
        0.05654117172120958,
        -0.051982169604978645,
        6.2728328433218765,
        0.0,
        -0.00046853160059045823,
        -6.27308765954671,
        -0.0519800580509491,
        0.0,
        -18.21216583251953,
        43.39509582519531,
        10.82358455657959,
        1.0
      ],
      "name": "Text.002_6"
    },
    {
      "mesh": 6,
      "name": "Object_16"
    }
  ],
  "scene": 0,
  "scenes": [
    {
      "name": "Sketchfab_Scene",
      "nodes": [
        0
      ]
    }
  ]
}
